# xmcd CD database file
#
# Track frame offsets:
#	150
#	15128
#	35847
#	55184
#	82835
#	99534
#	123519
#	152281
#	177789
#	197928
#	252393
#
# Disc length: 3671 seconds
#
# Revision: 0
# Processed by: cddbd v1.5.1PL2 Copyright (c) Steve Scherf et al.
# Submitted via: CDex 1.51
#
DISCID=800e550b
DTITLE=Jaki Byard - Parisian Solos
DYEAR=1971
DGENRE=Jazz
TTITLE0=Dedicated to Bob Vatel of the ten gallons
TTITLE1=When Lights are low
TTITLE2=Besame Mucho
TTITLE3=Willow Weep for me
TTITLE4=Tribute to Jimmy Slide
TTITLE5=Love is here to stay
TTITLE6=Isle to Isle
TTITLE7=Shiny Stockings
TTITLE8=Bugle Call Rag
TTITLE9=Medley (Goin' out of myhead/ Mind and Soual/ Besame Mucho/ Sunday)
TTITLE10=Going Home Blues
EXTD=YEAR: 1971
EXTT0=
EXTT1=
EXTT2=
EXTT3=
EXTT4=
EXTT5=
EXTT6=
EXTT7=
EXTT8=
EXTT9=
EXTT10=
PLAYORDER=
